# xmcd
#
# Track frame offsets:
#	150
#	16287
#	29940
#	45255
#	61790
#	81055
#	98795
#	110817
#	126362
#	139405
#	156165
#	172957
#	188887
#	206025
#	220422
#
# Disc length: 3187 seconds
#
# Revision: 0
# Processed by: cddbd v1.5.2PL0 Copyright (c) Steve Scherf et al.
# Submitted via: EasyCDDAExtractor 15.3.0.1
#
DISCID=d90c710f
DTITLE=Daniela Romo - 30 Exitos Insuperables - CD 2
DYEAR=2003
DGENRE=Latin
TTITLE0=Que Vengan Los Bomberos
TTITLE1=Prometes
TTITLE2=Tampoco Fuiste Tu
TTITLE3=Amada Mas Que Nunca
TTITLE4=La Guirnalda
TTITLE5=Mentiras
TTITLE6=Celos
TTITLE7=Balada Por Un Amor (Holding On To Love)
TTITLE8=Hoy Y Siempre Para Ti
TTITLE9=Nada Me Falta, Nada Me Sobra
TTITLE10=Atame A Tu Vida
TTITLE11=Me Alimento De Ti (A Duo Con Mijares)
TTITLE12=Dimelo
TTITLE13=Dueña De Mi Corazon
TTITLE14=Abuso
EXTD=
EXTT0=
EXTT1=
EXTT2=
EXTT3=
EXTT4=
EXTT5=
EXTT6=
EXTT7=
EXTT8=
EXTT9=
EXTT10=
EXTT11=
EXTT12=
EXTT13=
EXTT14=
PLAYORDER=
